<?xml version="1.0" standalone="no"?>
<!DOCTYPE svg PUBLIC "-//W3C//DTD SVG 20010904//EN"
 "http://www.w3.org/TR/2001/REC-SVG-20010904/DTD/svg10.dtd">
<svg version="1.0" xmlns="http://www.w3.org/2000/svg"
 width="291.000000pt" height="291.000000pt" viewBox="0 0 291.000000 291.000000"
 preserveAspectRatio="xMidYMid meet">
<metadata>
Created by potrace 1.11, written by Peter Selinger 2001-2013
</metadata>
<g transform="translate(0.000000,291.000000) scale(0.100000,-0.100000)"
fill="#000000" stroke="none">
<path d="M416 2699 c-28 -17 -58 -49 -44 -49 6 0 3 -7 -8 -15 -18 -14 -17 -14
9 -5 15 5 31 9 35 8 4 -1 18 2 32 6 14 4 54 2 90 -4 36 -6 72 -10 80 -10 8 0
31 1 49 1 23 1 40 -5 48 -17 7 -10 13 -13 13 -7 0 6 7 14 16 17 8 3 12 2 9 -4
-8 -13 1 -13 26 0 20 11 27 7 69 -34 20 -20 20 -20 20 7 0 32 11 40 44 31 22
-5 24 -9 15 -26 -20 -37 -3 -43 30 -10 21 20 42 32 60 32 15 0 32 5 38 11 14
14 43 5 43 -14 0 -7 -11 -24 -25 -37 -25 -23 -25 -23 -40 -4 -15 18 -15 18
-13 -10 3 -25 -1 -31 -27 -38 -38 -11 -81 -18 -126 -22 -19 -1 -41 -6 -47 -10
-7 -4 -12 -2 -12 4 0 7 -7 10 -15 6 -9 -3 -15 0 -15 8 0 8 6 16 13 19 6 2 9 8
4 12 -10 11 -38 -26 -32 -42 11 -32 -44 5 -58 38 -4 9 -6 7 -6 -6 2 -38 -1
-41 -33 -38 -44 4 -108 21 -86 22 21 1 34 39 19 54 -8 8 -11 8 -11 -1 0 -6
-12 -18 -26 -25 -17 -9 -23 -17 -15 -21 6 -4 11 -11 11 -16 0 -10 -40 -1 -57
13 -9 6 -13 6 -13 -3 0 -7 -7 -10 -15 -6 -11 4 -21 -5 -32 -29 -20 -42 -26
-43 -40 -7 -11 26 -11 25 -6 -11 4 -32 3 -36 -11 -31 -9 3 -16 11 -15 18 3 29
-2 46 -15 46 -8 0 -17 -6 -19 -12 -3 -7 -6 7 -6 31 -1 28 5 51 16 63 9 10 14
20 11 23 -10 10 -41 -49 -46 -88 -5 -46 6 -110 18 -102 4 3 18 -7 29 -21 12
-15 21 -23 21 -19 0 5 9 0 20 -10 11 -10 20 -23 20 -30 0 -7 7 -26 16 -44 20
-40 12 -51 -18 -25 l-23 19 23 -26 c12 -14 22 -30 22 -37 0 -6 5 -14 10 -17 6
-4 9 -1 8 6 -2 6 3 14 9 16 10 3 10 -2 2 -25 -6 -18 -6 -38 -1 -53 12 -29 62
-85 62 -68 0 6 7 8 16 5 10 -4 14 -1 11 6 -2 7 -11 12 -20 10 -26 -4 -60 36
-53 64 6 24 6 24 26 4 11 -11 24 -20 29 -20 4 0 33 -22 62 -49 45 -41 51 -51
37 -56 -24 -10 -23 -25 2 -25 22 0 27 -28 10 -60 -11 -20 11 -47 30 -35 5 3
10 -1 10 -10 0 -9 -4 -14 -8 -11 -5 3 -7 -8 -4 -24 2 -16 20 -42 40 -61 34
-31 35 -32 9 -3 -29 33 -35 54 -14 54 17 0 53 -40 62 -69 6 -21 25 -29 25 -11
0 6 4 10 9 10 9 0 51 -78 51 -93 0 -13 -27 -7 -40 8 -7 8 -17 15 -23 15 -5 0
2 -9 16 -20 22 -17 57 -72 57 -88 0 -2 -7 -1 -16 2 -9 3 -12 2 -9 -5 4 -6 14
-8 22 -5 12 5 14 1 10 -14 -3 -11 -1 -20 4 -20 5 0 12 -12 15 -26 4 -17 9 -22
14 -14 4 7 12 10 18 6 6 -3 12 -3 15 1 2 5 2 2 0 -5 -1 -8 -3 -20 -3 -28 0 -9
-4 -13 -9 -10 -4 3 -6 -5 -4 -17 3 -20 -7 -40 -54 -107 l-18 -25 32 23 c17 12
35 32 39 44 4 15 8 17 14 8 8 -14 -8 -60 -20 -60 -4 0 -20 -17 -35 -37 -17
-24 -6 -16 29 21 39 42 58 71 62 95 13 86 15 91 35 91 10 0 20 -4 20 -10 2
-12 6 -28 9 -35 1 -3 3 -27 3 -54 1 -32 -2 -47 -9 -44 -14 5 -27 -68 -14 -81
7 -7 10 -5 10 4 0 7 2 11 6 8 7 -8 -21 -51 -86 -131 -30 -38 -56 -63 -58 -58
-2 6 -8 11 -14 11 -7 0 -6 -5 1 -14 12 -14 5 -46 -10 -46 -5 0 -9 -6 -9 -13 0
-20 -28 -73 -46 -88 -8 -7 -14 -8 -13 -3 9 52 -16 41 -33 -13 -12 -37 -20 -47
-34 -45 -13 2 -15 0 -6 -6 9 -6 8 -13 -6 -28 -10 -10 -37 -47 -59 -81 -22 -35
-43 -60 -47 -56 -3 3 -6 -1 -6 -10 0 -9 -7 -17 -16 -17 -8 0 -13 -4 -9 -9 3
-6 -4 -15 -16 -21 -17 -10 -20 -9 -13 2 6 11 5 11 -9 -1 -9 -7 -17 -19 -17
-26 0 -8 -11 -22 -23 -32 -31 -24 -46 -54 -55 -104 -4 -22 -11 -39 -17 -39
-12 2 -26 -36 -19 -54 3 -7 -2 -16 -10 -19 -10 -4 -16 -1 -16 7 0 7 -11 35
-25 62 -27 53 -31 74 -15 90 6 6 12 26 14 45 1 19 9 46 16 59 l13 25 -28 -25
c-33 -31 -72 -95 -80 -135 l-6 -30 14 30 c8 17 22 39 32 50 16 19 16 19 10
-10 -17 -86 -21 -160 -10 -170 7 -5 17 -19 23 -29 11 -23 58 -28 85 -11 13 9
51 11 126 7 75 -3 110 -1 115 7 4 6 29 11 56 11 45 0 49 -2 53 -27 4 -26 4
-26 6 5 1 33 7 38 30 23 9 -6 10 -11 2 -15 -16 -10 -14 -26 3 -26 8 0 17 -7
20 -17 6 -14 8 -14 21 3 8 10 15 15 15 10 0 -6 7 -1 15 10 11 15 17 16 23 6 6
-9 15 -7 35 12 15 14 27 30 27 36 0 6 4 9 9 6 5 -4 18 6 29 21 l20 28 7 -38
c5 -23 3 -48 -4 -63 -16 -36 -14 -58 8 -71 16 -10 18 -9 14 7 -3 11 -9 17 -14
14 -5 -3 -9 4 -9 15 0 24 16 36 23 19 4 -10 6 -10 6 0 1 20 21 3 21 -17 0 -10
7 -24 15 -31 28 -23 18 -43 -20 -38 -22 2 -36 -1 -39 -9 -4 -9 1 -12 17 -9 74
15 78 17 75 34 -2 10 3 16 10 14 10 -2 10 2 3 16 -9 17 -4 20 37 31 91 24 102
25 102 7 0 -9 5 -16 11 -16 6 0 8 7 5 16 -3 8 -2 12 4 9 6 -3 10 0 10 7 0 9 3
9 10 -2 5 -8 10 -10 10 -4 0 15 140 26 156 13 8 -7 14 -7 19 1 12 19 24 10 34
-22 9 -32 9 -32 10 -5 1 15 6 27 11 27 14 0 12 -27 -5 -75 -12 -35 -12 -38 1
-21 7 11 14 14 14 7 0 -7 5 -9 11 -6 6 4 8 14 5 22 -3 8 -3 26 0 40 6 21 11
24 35 19 15 -3 31 -1 35 5 4 7 32 8 75 5 45 -4 78 -2 91 5 17 9 23 9 26 0 7
-21 21 -11 16 13 -3 18 1 26 14 30 10 4 19 12 20 19 1 6 5 27 8 46 5 24 2 38
-7 45 -13 10 -18 22 -23 53 -1 7 -5 15 -9 19 -8 8 10 44 22 44 15 0 21 -31 10
-52 -13 -24 -5 -35 15 -19 17 14 28 1 17 -18 -10 -15 -2 -53 12 -63 7 -4 7
-11 -1 -21 -17 -20 -13 -137 5 -137 15 0 16 20 4 73 -8 33 -7 37 10 37 10 0
19 5 19 10 0 6 -4 10 -8 10 -4 0 -8 16 -9 35 -1 28 2 33 11 26 9 -8 11 -30 8
-73 -9 -106 -6 -178 6 -190 9 -9 9 -4 2 23 -14 47 -13 49 15 49 14 0 55 14 90
30 35 17 73 30 84 30 11 0 33 11 50 25 l30 26 12 -23 c6 -12 12 -47 13 -77 l1
-56 -64 3 c-77 3 -74 -8 6 -19 62 -9 71 -3 74 41 1 17 4 12 9 -15 l7 -40 2 38
c1 46 -1 52 -16 51 -16 -2 -16 16 -2 53 8 22 12 24 19 13 6 -8 10 -27 10 -42
0 -16 4 -28 9 -28 5 0 7 -19 4 -42 -3 -31 -2 -39 6 -28 8 12 12 10 20 -10 5
-14 10 -18 10 -9 1 8 -4 20 -11 27 -10 10 -7 17 11 35 l22 22 -6 -27 c-5 -18
-3 -28 4 -28 6 0 11 7 11 16 0 9 18 36 40 61 27 31 41 56 42 77 0 17 2 38 2
46 1 14 -5 62 -19 145 -4 21 0 34 12 42 15 12 15 13 -4 13 -24 0 -34 -34 -22
-68 16 -41 -10 -22 -45 35 -20 32 -36 69 -37 83 0 15 -3 19 -6 10 -6 -14 -33
-45 -33 -38 0 3 5 30 11 61 6 34 6 63 1 73 -6 11 -9 5 -10 -23 -2 -62 -12 -92
-27 -87 -17 7 -49 99 -40 114 3 5 2 10 -3 10 -11 0 -26 69 -18 77 3 3 12 0 21
-7 8 -7 15 -10 15 -6 0 11 -65 46 -86 46 -12 0 -27 -7 -34 -15 -7 -9 -8 -15
-2 -15 18 0 72 -54 72 -72 0 -10 -4 -18 -9 -18 -5 0 -11 -10 -13 -22 -2 -15
-14 -26 -33 -33 -16 -5 -36 -18 -43 -27 -7 -10 -19 -18 -25 -18 -7 -1 -27 -14
-46 -30 -19 -16 -38 -27 -42 -24 -5 3 -14 -4 -21 -16 -15 -23 -28 -26 -28 -5
0 8 -6 12 -14 9 -10 -4 -16 3 -18 23 -2 24 -8 28 -33 29 -16 0 -42 -8 -57 -18
-16 -11 -33 -16 -38 -13 -6 4 -9 3 -8 -2 2 -4 -1 -10 -7 -11 -5 -2 -14 -7 -20
-11 -5 -3 -23 -6 -40 -6 -29 0 -65 -30 -65 -53 0 -6 -4 -13 -8 -16 -5 -3 -6 8
-4 25 3 22 0 29 -12 29 -9 0 -16 8 -17 18 0 11 -2 12 -6 4 -3 -7 1 -19 7 -28
7 -8 14 -40 15 -72 1 -45 -4 -64 -22 -92 -20 -30 -28 -33 -24 -8 0 5 -4 8 -10
8 -8 0 -10 15 -4 52 10 67 12 148 4 143 -3 -2 -6 9 -6 25 0 16 -7 38 -16 48
-19 21 -23 47 -5 36 6 -4 17 1 25 12 11 15 15 16 22 5 5 -7 14 -10 20 -7 6 4
11 3 11 -1 0 -5 18 -14 40 -20 22 -5 40 -7 40 -4 0 7 75 6 157 -2 27 -3 44 0
47 8 2 7 22 15 45 19 22 3 43 10 46 16 4 6 -6 7 -27 2 -18 -4 -78 -7 -133 -7
-85 0 -100 2 -103 17 -2 11 5 18 20 21 22 4 -79 7 -322 8 -58 1 -127 -1 -155
-4 -27 -3 -56 -6 -64 -6 -11 -1 -11 -4 -1 -16 7 -9 10 -18 7 -21 -9 -9 -27 5
-27 22 0 18 -29 18 -36 0 -4 -11 -12 -13 -30 -6 -15 6 -24 6 -24 0 0 -6 7 -10
15 -10 8 0 15 -4 15 -10 0 -16 -40 -11 -46 5 -4 9 -13 13 -23 10 -12 -4 -20 3
-27 22 -18 50 20 172 76 243 16 20 20 22 20 7 0 -9 -6 -27 -12 -38 -10 -17
-10 -23 -1 -26 7 -2 17 -19 23 -38 10 -30 13 -32 35 -21 24 11 42 46 24 46 -5
0 -9 -6 -9 -14 0 -14 -29 -31 -38 -22 -9 10 -11 126 -1 132 5 3 7 9 4 14 -2 4
6 24 20 44 14 20 25 40 25 44 0 4 9 18 20 32 l20 25 0 -27 c0 -16 -9 -37 -21
-49 l-21 -21 24 7 c32 10 32 10 30 58 -1 23 1 37 6 30 5 -8 11 -3 20 16 19 43
52 75 65 62 20 -20 30 -11 24 24 -3 20 -1 37 5 41 6 4 8 26 5 55 -3 27 -2 49
3 49 5 0 10 -8 12 -17 2 -13 6 -10 16 11 7 15 8 25 4 22 -10 -6 -36 43 -28 52
3 3 12 -1 20 -7 10 -8 16 -9 21 -1 3 5 -1 10 -10 10 -8 0 -18 7 -22 16 -3 8
-12 13 -19 10 -9 -4 -14 2 -14 16 0 17 -3 18 -14 9 -13 -11 -12 -15 5 -32 20
-20 24 -45 10 -67 -12 -20 -64 52 -56 78 4 12 2 20 -5 20 -6 0 -9 -4 -5 -9 3
-5 1 -12 -4 -15 -11 -7 -37 22 -45 52 -4 12 -12 22 -17 22 -5 0 -9 5 -9 12 0
6 -14 40 -30 75 -17 34 -31 73 -31 86 -1 16 -2 18 -6 5 -3 -14 -13 -8 -48 30
-25 26 -45 50 -45 54 0 4 -6 13 -14 20 -20 20 -28 128 -10 128 8 0 14 5 14 11
0 5 -5 7 -10 4 -16 -10 -12 31 4 44 12 10 15 8 18 -11 2 -12 11 -24 21 -26 14
-3 17 4 17 32 0 22 -5 36 -12 36 -7 0 0 7 16 15 15 8 37 15 47 15 20 0 26 -15
9 -25 -5 -3 -10 -11 -10 -17 0 -6 9 1 21 16 27 34 40 33 33 -4 -5 -23 -3 -30
9 -30 9 0 19 9 22 20 5 14 15 20 38 20 52 0 132 62 110 84 -3 3 -2 6 4 6 6 0
11 11 11 25 0 14 10 36 24 48 l24 23 17 -23 c17 -22 16 -24 -13 -65 -25 -34
-30 -50 -28 -85 2 -26 8 -43 16 -43 6 0 12 -7 12 -15 0 -7 7 -18 16 -23 14 -8
14 -10 -1 -25 -13 -14 -14 -17 -2 -17 13 0 30 35 31 65 1 14 98 43 168 51 55
6 58 5 69 -19 12 -27 33 -28 23 -2 -8 20 4 35 21 28 9 -3 15 -19 16 -37 l1
-31 10 38 c9 33 13 37 40 35 24 -2 28 -6 24 -24 -4 -16 -1 -23 13 -27 15 -3
18 -11 14 -27 -4 -16 -11 -20 -26 -16 -14 3 -17 2 -9 -6 5 -5 19 -7 31 -3 25
8 29 52 6 61 -8 4 -15 12 -15 20 0 8 6 11 15 8 8 -4 15 -1 15 5 0 31 91 -11
129 -60 26 -34 44 -79 31 -79 -6 0 -10 7 -10 15 0 8 -4 15 -10 15 -5 0 -10 8
-10 17 0 15 -1 15 -13 -2 -9 -11 -19 -15 -27 -10 -9 6 -11 4 -6 -4 5 -7 14
-10 20 -8 7 3 18 -4 24 -14 8 -12 8 -19 2 -19 -5 0 -10 5 -10 11 0 5 -5 7 -12
3 -8 -5 -5 -11 10 -17 12 -6 22 -17 22 -26 0 -14 2 -14 10 -1 8 12 14 13 46 1
37 -13 38 -13 66 18 16 18 33 29 38 26 17 -11 32 5 20 20 -9 11 -7 20 7 39 23
33 33 32 33 -1 1 -24 2 -25 11 -11 13 24 42 12 33 -14 -4 -14 -2 -18 5 -14 6
4 11 3 11 -3 0 -5 -14 -8 -30 -6 -17 2 -28 0 -25 -6 4 -5 12 -9 20 -9 7 0 15
-5 17 -12 2 -6 14 6 26 27 13 20 21 43 18 49 -2 6 -5 3 -5 -6 -1 -21 -21 -25
-21 -4 0 8 -11 17 -24 20 -24 6 -43 35 -29 45 4 3 18 27 31 54 13 26 28 45 33
42 5 -4 9 3 9 14 0 12 6 21 14 21 8 0 20 17 27 37 11 34 13 35 25 18 13 -17
14 -17 14 -1 0 9 10 40 22 67 18 44 20 58 11 105 -10 57 -4 67 26 40 12 -11
21 -12 31 -5 13 9 12 10 -2 5 -10 -3 -21 1 -25 8 -18 30 -64 43 -170 49 -33 2
-42 10 -24 22 5 3 37 6 70 7 34 1 61 5 61 8 0 6 -228 12 -410 12 -25 0 -88 0
-140 1 -99 0 -484 0 -605 0 -38 0 -126 0 -195 0 -308 -1 -570 -8 -542 -15 16
-5 32 -14 35 -22 4 -11 -13 -12 -91 -9 -54 3 -101 6 -107 7 -14 5 32 23 85 34
l45 10 -50 0 c-27 1 -58 -3 -69 -9z m812 -20 c2 -5 12 -9 23 -9 10 0 19 -7 19
-15 0 -19 -49 -20 -75 -1 -11 8 -24 12 -30 10 -6 -3 -45 -6 -86 -8 -41 -2 -86
-7 -101 -11 -18 -5 -28 -3 -28 3 0 13 53 39 90 45 38 6 185 -5 188 -14z m371
5 c10 -9 -11 -15 -60 -17 -32 -1 -54 2 -56 10 -2 6 4 13 14 15 19 5 95 -2 102
-8z m169 1 c11 -10 -17 -28 -50 -32 -34 -3 -98 13 -98 26 0 19 19 23 79 17 35
-3 66 -8 69 -11z m52 -11 c0 -8 -5 -12 -10 -9 -6 4 -8 11 -5 16 9 14 15 11 15
-7z m353 -1 c24 -15 -19 -23 -123 -24 -74 -1 -118 -5 -122 -13 -5 -7 -8 -5 -8
5 0 25 21 37 70 42 51 5 169 -1 183 -10z m-1463 -8 c17 -21 7 -29 -19 -15 -12
6 -26 8 -31 5 -6 -3 -10 -2 -10 4 0 22 43 26 60 6z m170 8 c0 -24 -80 -40
-129 -26 l-23 6 23 13 c25 14 129 19 129 7z m530 -3 c0 -5 -4 -10 -10 -10 -5
0 -10 5 -10 10 0 6 5 10 10 10 6 0 10 -4 10 -10z m-43 -16 c-3 -3 -12 -4 -19
-1 -8 3 -5 6 6 6 11 1 17 -2 13 -5z m463 -26 c0 -5 4 -8 10 -8 5 0 7 8 3 18
-3 9 5 3 18 -13 20 -26 28 -30 54 -24 17 4 54 7 83 8 45 1 52 -2 52 -18 0 -30
-11 -51 -26 -51 -8 0 -14 -4 -14 -9 0 -5 -13 -16 -30 -25 -27 -13 -30 -13 -30
1 0 13 -3 13 -15 3 -11 -9 -15 -10 -15 -1 0 8 -8 10 -20 6 -15 -5 -18 -3 -14
9 5 12 2 15 -10 10 -9 -3 -16 -10 -16 -15 0 -9 -55 -40 -67 -38 -4 1 -16 -1
-26 -6 -12 -5 -22 -2 -32 11 -19 26 -18 35 4 41 14 3 20 16 23 44 2 21 -1 41
-7 43 -5 3 1 13 14 24 20 16 28 18 43 9 10 -7 18 -15 18 -19z m420 15 c20 -14
23 -14 18 -1 -5 13 -3 14 15 5 20 -9 22 -18 21 -83 -1 -41 2 -71 7 -69 4 3 6
24 4 48 -2 23 -1 54 2 68 l5 27 39 -16 c21 -8 39 -22 39 -30 0 -11 3 -12 13
-4 10 9 17 5 29 -16 14 -25 14 -29 -2 -55 -10 -16 -19 -24 -21 -18 -3 9 -14 8
-39 0 -45 -15 -70 -37 -70 -61 0 -11 -5 -16 -11 -13 -6 4 -8 14 -5 24 3 9 -2
6 -10 -6 -9 -13 -23 -23 -31 -23 -8 0 -13 -6 -10 -12 2 -7 16 -13 32 -13 l27
1 -22 -18 c-18 -15 -19 -18 -6 -18 10 0 14 -4 11 -10 -3 -5 -3 -16 2 -22 15
-25 14 -51 -2 -44 -15 5 -19 -4 -16 -36 1 -10 -2 -26 -8 -35 -9 -17 -10 -17
-17 0 -4 10 -2 34 3 52 9 30 8 34 -13 46 -13 7 -24 18 -24 26 0 23 -1 28 -13
42 -10 12 -9 14 6 8 13 -5 17 -1 17 14 0 11 7 22 15 25 8 4 15 10 15 16 0 5
-3 7 -8 4 -4 -2 -15 2 -25 9 -15 11 -17 17 -7 35 6 12 9 25 5 28 -10 10 -25
-21 -25 -53 0 -23 -3 -27 -10 -15 -15 23 -12 51 8 73 9 12 11 17 3 12 -9 -5
-12 -3 -9 6 3 8 11 13 17 12 6 -2 11 2 11 7 0 6 5 9 11 8 6 -2 14 3 17 11 3 8
0 11 -7 7 -15 -10 -14 7 2 24 10 12 9 12 -4 2 -9 -6 -19 -9 -22 -5 -4 3 -7 -1
-7 -10 0 -17 -36 -47 -57 -47 -7 0 -13 10 -13 23 0 13 -6 29 -12 35 -20 20 9
34 59 29 32 -3 40 -1 36 9 -7 19 7 18 37 -3z m-1057 -5 c12 -6 29 -13 37 -14
8 -1 23 -5 33 -9 11 -4 17 -3 17 5 0 9 13 11 44 8 25 -3 49 -1 55 5 17 17 22
3 25 -60 2 -39 -2 -63 -11 -71 -9 -9 -13 -9 -13 -1 0 6 -7 9 -15 5 -9 -3 -15
0 -15 9 0 7 -4 17 -10 20 -6 4 -9 -4 -7 -17 2 -18 -3 -23 -22 -23 -16 0 -40
-16 -68 -44 -28 -28 -43 -38 -43 -27 0 9 -5 16 -11 16 -5 0 -7 -5 -3 -11 3 -6
0 -15 -7 -20 -19 -12 -32 -11 -24 1 3 6 -3 10 -13 10 -11 0 -22 7 -26 15 -3 8
-12 12 -21 9 -8 -3 -15 -1 -15 6 0 6 4 9 10 5 5 -3 18 11 29 32 l19 38 17 -39
c9 -21 18 -36 21 -33 8 8 -8 87 -18 87 -5 0 -6 10 -2 23 6 21 6 21 -15 -3
l-21 -25 10 28 c5 16 10 42 10 58 0 32 16 37 53 17z m326 1 c36 -5 77 -16 91
-23 30 -16 69 -14 80 4 6 10 9 8 12 -6 3 -15 -11 -54 -30 -84 -2 -2 -7 2 -12
10 -8 13 -10 12 -10 -2 0 -10 -4 -18 -10 -18 -5 0 -10 5 -10 11 0 6 -5 7 -12
2 -7 -4 -20 -8 -28 -9 -125 -15 -130 -14 -130 3 0 14 -3 12 -13 -6 -14 -29
-44 -43 -34 -17 4 10 7 47 7 82 0 73 -5 70 99 53z m-417 -106 c11 -13 3 -33
-14 -33 -7 0 -6 6 2 15 10 12 10 15 -4 15 -9 0 -16 8 -16 18 0 26 14 38 19 15
2 -10 8 -23 13 -30z m634 24 c2 -17 -23 -44 -32 -34 -4 3 -3 18 0 32 7 28 28
30 32 2z m410 -64 c-10 -10 -19 5 -10 18 6 11 8 11 12 0 2 -7 1 -15 -2 -18z
m-70 -30 c-10 -10 -19 5 -10 18 6 11 8 11 12 0 2 -7 1 -15 -2 -18z m-1599 -25
c-3 -7 -5 -2 -5 12 0 14 2 19 5 13 2 -7 2 -19 0 -25z m1613 -8 c0 -5 10 -18
21 -29 15 -14 19 -26 14 -38 -5 -12 -9 -14 -12 -5 -3 6 -11 12 -20 12 -10 0
-12 6 -8 20 4 11 2 20 -4 20 -6 0 -11 7 -11 15 0 8 5 15 10 15 6 0 10 -4 10
-10z m27 -12 c-3 -8 -6 -5 -6 6 -1 11 2 17 5 13 3 -3 4 -12 1 -19z m-1007 2
c0 -5 -4 -10 -10 -10 -5 0 -10 5 -10 10 0 6 5 10 10 10 6 0 10 -4 10 -10z m25
-20 c3 -5 1 -10 -4 -10 -6 0 -11 5 -11 10 0 6 2 10 4 10 3 0 8 -4 11 -10z
m392 -52 c-3 -8 -6 -5 -6 6 -1 11 2 17 5 13 3 -3 4 -12 1 -19z m671 -33 c-3
-3 -12 -3 -21 1 -13 5 -14 9 -4 25 12 19 12 19 21 -1 5 -11 7 -23 4 -25z
m-575 3 c-6 -7 -13 -26 -17 -41 -5 -20 -11 -27 -21 -23 -8 3 -15 2 -15 -3 0
-4 -7 -8 -15 -8 -8 0 -15 4 -15 9 0 14 38 47 46 40 4 -4 4 1 1 11 -4 11 -3 16
3 12 6 -3 10 -1 10 4 0 6 7 11 16 11 12 0 14 -4 7 -12z m517 2 c0 -5 -4 -10
-10 -10 -5 0 -10 5 -10 10 0 6 5 10 10 10 6 0 10 -4 10 -10z m82 -115 c4 -17
1 -25 -8 -25 -14 0 -19 31 -7 43 9 10 10 9 15 -18z m-722 -16 c0 -25 -4 -24
-23 5 -15 23 -15 24 3 19 11 -3 20 -14 20 -24z m-743 -121 c-3 -8 -6 -5 -6 6
-1 11 2 17 5 13 3 -3 4 -12 1 -19z m72 -34 c0 -4 5 -11 13 -15 11 -8 11 -10
-1 -18 -11 -7 -11 -9 0 -14 11 -3 9 -9 -6 -21 -11 -8 -15 -16 -7 -16 20 0 14
-23 -13 -48 -22 -22 -53 -23 -40 -1 3 5 -1 6 -9 3 -9 -3 -16 -1 -16 5 0 6 12
11 26 11 23 0 25 2 14 15 -11 13 -11 20 0 41 10 18 11 27 2 36 -8 8 -13 4 -18
-16 -3 -14 -13 -26 -21 -26 -11 0 -8 11 13 48 33 57 47 67 56 41 4 -10 7 -22
7 -25z m-164 6 c3 -5 1 -10 -4 -10 -6 0 -11 5 -11 10 0 6 2 10 4 10 3 0 8 -4
11 -10z m15 -24 c0 -3 -4 -8 -10 -11 -5 -3 -10 -1 -10 4 0 6 5 11 10 11 6 0
10 -2 10 -4z m20 -27 c0 -11 -4 -18 -10 -14 -5 3 -7 12 -3 20 7 21 13 19 13
-6z m27 -81 c-3 -8 -6 -5 -6 6 -1 11 2 17 5 13 3 -3 4 -12 1 -19z m153 -250
c0 -6 7 -20 17 -30 14 -16 14 -18 1 -18 -9 0 -23 11 -32 25 -20 30 -20 35 -1
35 8 0 15 -5 15 -12z m676 -803 c12 -3 24 -11 27 -19 5 -13 -12 -15 -111 -14
-64 1 -127 -2 -139 -6 -42 -13 -35 14 9 34 35 17 56 19 118 15 41 -3 85 -8 96
-10z m-786 -17 c0 -6 -7 -19 -15 -28 -8 -9 -17 -32 -19 -51 -3 -19 -6 -35 -7
-36 -1 -2 -2 -9 -3 -15 0 -7 -9 -14 -20 -16 -10 -2 -16 0 -12 6 3 6 2 21 -3
34 -14 37 34 116 72 118 4 0 7 -5 7 -12z m944 -3 c6 -16 -3 -19 -28 -9 -22 8
-20 24 3 24 10 0 21 -7 25 -15z m-834 -25 c-13 -8 -12 -10 3 -10 22 0 22 -29
0 -37 -15 -6 -15 -7 3 -14 17 -7 17 -8 -3 -8 -13 -1 -23 -7 -23 -14 0 -25 -21
-37 -37 -21 -13 13 -17 13 -29 -3 -11 -14 -10 -8 2 22 8 22 27 50 42 62 15 13
23 23 18 23 -5 0 -3 7 4 15 10 12 16 13 24 5 8 -8 7 -13 -4 -20z m574 -20 c14
-1 17 -7 13 -26 -5 -27 7 -33 17 -8 4 9 9 15 12 12 6 -7 -27 -78 -37 -78 -4 0
-9 -9 -12 -20 -3 -11 -11 -20 -17 -20 -7 0 -10 7 -6 15 3 8 -6 26 -20 40 l-26
26 7 -40 c6 -34 4 -41 -10 -41 -15 0 -15 -1 -1 -16 28 -27 39 -56 27 -64 -7
-4 -10 -19 -7 -33 3 -19 0 -27 -9 -27 -9 0 -12 -6 -9 -15 4 -8 1 -15 -5 -15
-6 0 -11 6 -11 13 0 6 -9 1 -19 -11 -16 -22 -19 -23 -34 -7 -21 21 -21 26 -1
18 14 -5 16 0 12 35 -2 23 0 42 5 42 4 0 7 8 6 18 -1 9 4 30 11 45 11 22 11
30 2 36 -7 4 -10 15 -7 24 5 12 2 14 -12 11 -11 -3 -25 2 -32 10 -8 9 -17 16
-22 16 -5 0 -18 9 -29 20 -17 17 -18 21 -5 26 8 4 30 3 49 0 24 -5 37 -2 47
10 10 12 24 14 58 10 25 -3 54 -6 65 -6z m71 -18 c-3 -8 0 -19 7 -24 10 -6 9
-8 -3 -8 -17 0 -33 36 -23 52 9 14 26 -3 19 -20z m-723 6 c-5 -7 -12 -22 -15
-33 -4 -16 -5 -15 -6 6 -1 27 6 39 22 39 6 0 5 -5 -1 -12z m289 -11 c-10 -9
-11 -8 -5 6 3 10 9 15 12 12 3 -3 0 -11 -7 -18z m1104 13 c-3 -5 -10 -10 -16
-10 -5 0 -9 5 -9 10 0 6 7 10 16 10 8 0 12 -4 9 -10z m-1069 -55 c-4 -14 -2
-25 4 -25 9 0 14 13 12 32 -2 9 27 18 32 10 5 -8 -39 -62 -50 -62 -4 0 -16 -8
-27 -17 -19 -18 -20 -17 -7 6 10 19 10 25 -1 32 -11 7 -11 9 2 9 9 0 19 9 22
20 3 11 8 20 12 20 4 0 4 -11 1 -25z m-366 -46 c-7 -16 -16 -29 -21 -29 -13 0
-11 17 4 32 8 6 12 23 10 37 -4 23 -3 24 7 8 9 -14 9 -26 0 -48z m1443 19 c-2
-5 3 -8 11 -8 21 0 20 -34 -1 -70 -16 -28 -65 -47 -71 -29 -2 5 -8 7 -13 3
-12 -7 -12 9 1 22 5 5 11 22 12 36 1 15 5 25 9 22 4 -2 15 13 24 33 16 33 19
35 25 18 4 -11 6 -23 3 -27z m-247 -86 c3 -23 4 -46 0 -49 -3 -4 -6 5 -6 18 0
14 -9 32 -20 42 -25 21 -26 36 0 34 15 -1 21 -11 26 -45z m-669 6 c-3 -7 -5
-2 -5 12 0 14 2 19 5 13 2 -7 2 -19 0 -25z m-37 -9 c0 -5 -7 -9 -15 -9 -9 0
-15 9 -15 21 0 18 2 19 15 9 8 -7 15 -16 15 -21z m-667 -36 c-6 -48 -19 -56
-29 -17 -7 27 14 80 27 67 4 -5 5 -27 2 -50z m102 -30 c0 -13 -3 -27 -7 -29
-5 -3 -6 -10 -2 -15 9 -15 -43 -59 -70 -59 -20 0 -22 4 -20 43 2 23 4 43 5 45
2 3 6 19 8 32 2 16 31 11 31 -5 0 -8 5 -15 10 -15 14 0 13 33 -1 47 -6 6 -8
16 -4 22 9 16 48 -36 50 -66z m-145 42 c0 -14 -4 -25 -9 -25 -4 0 -6 11 -3 25
2 14 6 25 8 25 2 0 4 -11 4 -25z m1518 -17 c8 -10 4 -13 -14 -14 -20 -2 -23 1
-13 12 14 17 14 17 27 2z m-158 -52 c0 -14 -4 -28 -10 -31 -6 -4 -10 7 -10 24
0 17 5 31 10 31 6 0 10 -11 10 -24z m179 12 c6 -7 17 -13 23 -13 6 0 13 -6 16
-14 3 -8 -1 -12 -9 -9 -9 3 -23 -14 -40 -46 -14 -27 -32 -52 -40 -55 -12 -3
-12 -2 -1 11 8 10 9 17 3 20 -16 5 -23 100 -8 110 18 11 41 10 56 -4z m222
-41 c-6 -8 -9 -22 -5 -31 7 -19 -7 -21 -24 -4 -17 17 -15 41 2 35 8 -3 17 1
20 10 4 9 9 13 13 10 3 -4 1 -13 -6 -20z m109 -22 c0 -8 -4 -15 -10 -15 -5 0
-7 7 -4 15 4 8 8 15 10 15 2 0 4 -7 4 -15z m-1560 -51 c0 -8 -4 -12 -10 -9 -5
3 -10 13 -10 21 0 8 5 12 10 9 6 -3 10 -13 10 -21z m211 -1 c-8 -15 -10 -15
-11 -2 0 17 10 32 18 25 2 -3 -1 -13 -7 -23z m55 -81 c-4 -3 -12 0 -19 7 -9
11 -9 14 1 18 6 3 13 14 14 26 0 12 3 7 5 -11 3 -19 2 -37 -1 -40z"/>
<path d="M1764 2529 c-3 -6 -1 -16 5 -22 8 -8 11 -5 11 11 0 24 -5 28 -16 11z"/>
<path d="M1331 754 c0 -11 3 -14 6 -6 3 7 2 16 -1 19 -3 4 -6 -2 -5 -13z"/>
<path d="M2191 645 c0 -37 1 -39 14 -21 16 22 20 50 6 42 -5 -4 -12 0 -14 6
-3 7 -6 -5 -6 -27z"/>
<path d="M605 520 c-3 -5 1 -10 9 -10 9 0 16 5 16 10 0 6 -4 10 -9 10 -6 0
-13 -4 -16 -10z"/>
<path d="M278 2576 c-9 -18 -19 -55 -22 -82 -6 -48 -6 -47 13 16 10 36 22 73
26 83 13 31 -1 18 -17 -17z"/>
<path d="M498 2588 c8 -9 11 -22 8 -27 -4 -5 -2 -12 4 -16 18 -11 11 32 -7 46
-16 13 -17 12 -5 -3z"/>
<path d="M800 2559 c0 -5 5 -7 10 -4 6 3 10 8 10 11 0 2 -4 4 -10 4 -5 0 -10
-5 -10 -11z"/>
<path d="M470 2550 c0 -5 5 -10 11 -10 5 0 7 5 4 10 -3 6 -8 10 -11 10 -2 0
-4 -4 -4 -10z"/>
<path d="M931 2534 c0 -11 3 -14 6 -6 3 7 2 16 -1 19 -3 4 -6 -2 -5 -13z"/>
<path d="M310 2395 c0 -4 11 -20 25 -37 14 -16 25 -25 25 -19 0 5 -11 22 -25
37 -14 15 -25 24 -25 19z"/>
<path d="M2496 2361 c-4 -6 -13 -8 -21 -4 -9 3 -15 -1 -15 -10 0 -9 -2 -24 -5
-34 -3 -10 0 -6 7 8 7 14 18 24 25 22 12 -4 28 15 20 23 -3 3 -8 1 -11 -5z"/>
<path d="M2523 2323 c-7 -3 -13 -14 -13 -26 -1 -21 -1 -21 -14 -4 -13 16 -14
15 -18 -12 -5 -34 8 -75 21 -67 5 3 7 16 4 29 -4 18 -3 19 6 7 9 -13 11 -12 9
5 -3 39 2 54 20 57 9 2 13 6 7 9 -5 4 -16 4 -22 2z"/>
<path d="M372 2306 c7 -8 15 -12 17 -11 5 6 -10 25 -20 25 -5 0 -4 -6 3 -14z"/>
<path d="M2441 2274 c0 -11 3 -14 6 -6 3 7 2 16 -1 19 -3 4 -6 -2 -5 -13z"/>
<path d="M2438 2228 c2 -10 -1 -18 -7 -18 -7 0 -9 5 -5 11 4 8 0 8 -15 0 -24
-13 -28 -23 -6 -15 8 4 15 1 15 -6 0 -9 6 -8 18 3 21 19 25 44 7 44 -7 0 -10
-8 -7 -19z"/>
<path d="M1690 2203 c1 -20 28 -55 34 -44 4 6 3 11 -2 11 -6 0 -9 7 -8 16 0 9
-5 19 -11 21 -7 3 -13 1 -13 -4z"/>
<path d="M1653 2165 c-3 -9 -3 -19 1 -22 3 -4 6 1 6 10 0 8 6 18 13 20 9 4 9
6 -1 6 -7 1 -15 -6 -19 -14z"/>
<path d="M1356 2161 c-4 -7 -5 -15 -2 -18 9 -9 19 4 14 18 -4 11 -6 11 -12 0z"/>
<path d="M1590 2151 c0 -17 40 -52 51 -45 5 3 9 8 9 11 0 4 -3 3 -6 0 -4 -4
-18 6 -30 21 -14 15 -24 21 -24 13z"/>
<path d="M1181 2125 c21 -21 29 -24 50 -16 l24 10 -27 0 c-15 1 -33 8 -42 16
-8 8 -18 15 -23 15 -4 0 4 -11 18 -25z"/>
<path d="M1970 2139 c-12 -8 -11 -9 5 -7 12 2 19 -2 18 -9 -2 -7 2 -13 7 -13
12 0 12 3 4 24 -7 19 -13 20 -34 5z"/>
<path d="M1290 2133 c5 -2 8 -9 4 -14 -3 -5 0 -9 6 -9 15 0 7 23 -8 26 -7 1
-8 0 -2 -3z"/>
<path d="M1700 2124 c0 -8 5 -12 10 -9 6 3 10 10 10 16 0 5 -4 9 -10 9 -5 0
-10 -7 -10 -16z"/>
<path d="M1765 2129 c3 -4 -1 -10 -7 -12 -7 -3 -4 -6 7 -6 11 0 26 3 33 8 10
6 7 10 -12 13 -14 3 -23 2 -21 -3z"/>
<path d="M1138 2119 c-10 -5 -17 -20 -17 -32 1 -20 2 -20 6 -2 3 11 13 25 22
32 19 15 13 16 -11 2z"/>
<path d="M1335 2110 c-13 -6 -15 -9 -5 -9 8 0 22 4 30 9 18 12 2 12 -25 0z"/>
<path d="M1398 2113 c7 -3 16 -2 19 1 4 3 -2 6 -13 5 -11 0 -14 -3 -6 -6z"/>
<path d="M1430 2110 c0 -5 5 -10 11 -10 5 0 7 5 4 10 -3 6 -8 10 -11 10 -2 0
-4 -4 -4 -10z"/>
<path d="M1555 2110 c-16 -6 -14 -8 12 -7 18 0 30 4 27 9 -6 10 -12 9 -39 -2z"/>
<path d="M1828 2113 c7 -3 16 -2 19 1 4 3 -2 6 -13 5 -11 0 -14 -3 -6 -6z"/>
<path d="M2320 2039 c0 -5 5 -7 10 -4 6 3 10 8 10 11 0 2 -4 4 -10 4 -5 0 -10
-5 -10 -11z"/>
<path d="M560 2037 c0 -2 15 -16 33 -33 l32 -29 -29 33 c-28 30 -36 37 -36 29z"/>
<path d="M2113 2016 c9 -7 17 -22 17 -32 0 -23 54 -59 72 -48 11 7 -19 25 -47
29 -5 0 -9 7 -7 14 6 26 -10 51 -31 51 -20 -1 -21 -2 -4 -14z"/>
<path d="M631 1994 c0 -11 3 -14 6 -6 3 7 2 16 -1 19 -3 4 -6 -2 -5 -13z"/>
<path d="M2228 1975 c-3 -14 -1 -25 3 -25 5 0 9 4 9 8 0 5 10 13 23 18 12 6
16 9 8 7 -7 -2 -19 1 -26 7 -9 8 -14 4 -17 -15z"/>
<path d="M1157 1972 c1 -8 3 -19 3 -25 0 -7 5 -6 11 3 8 11 12 12 16 3 2 -7 9
-13 15 -13 6 0 6 6 -2 15 -7 8 -18 15 -25 15 -8 0 -15 3 -18 8 -2 4 -2 1 0 -6z"/>
<path d="M1213 1919 c3 -17 37 -57 37 -42 0 4 -9 19 -20 33 -12 16 -18 19 -17
9z"/>
<path d="M1280 1820 c0 -5 5 -10 11 -10 5 0 7 5 4 10 -3 6 -8 10 -11 10 -2 0
-4 -4 -4 -10z"/>
<path d="M1252 1770 c0 -14 2 -19 5 -12 2 6 2 18 0 25 -3 6 -5 1 -5 -13z"/>
<path d="M1501 1424 c0 -11 3 -14 6 -6 3 7 2 16 -1 19 -3 4 -6 -2 -5 -13z"/>
<path d="M778 1265 c-31 -47 -50 -80 -42 -74 11 9 14 7 14 -11 0 -17 -4 -21
-20 -17 -13 3 -24 -3 -35 -19 -8 -13 -15 -27 -14 -30 0 -4 -6 -11 -15 -16 -9
-5 -16 -13 -16 -19 0 -5 11 -2 25 7 27 18 47 12 27 -8 -7 -7 -12 -17 -12 -23
0 -18 49 49 50 68 0 10 15 37 34 60 33 42 76 107 63 96 -4 -3 -23 -28 -42 -55
-54 -75 -45 -21 9 60 24 36 41 66 37 66 -4 0 -32 -38 -63 -85z m-58 -143 c0
-4 -9 -8 -19 -8 -15 0 -17 3 -9 13 10 12 28 9 28 -5z"/>
<path d="M1420 1331 c0 -18 27 -37 38 -26 3 3 0 5 -6 5 -7 0 -12 9 -12 20 0
11 -4 20 -10 20 -5 0 -10 -9 -10 -19z"/>
<path d="M1370 1265 c0 -8 2 -15 4 -15 2 0 6 7 10 15 3 8 1 15 -4 15 -6 0 -10
-7 -10 -15z"/>
<path d="M1390 1249 c0 -5 5 -7 10 -4 6 3 10 8 10 11 0 2 -4 4 -10 4 -5 0 -10
-5 -10 -11z"/>
<path d="M1296 1225 c4 -8 10 -15 15 -15 4 0 6 7 3 15 -4 8 -10 15 -15 15 -4
0 -6 -7 -3 -15z"/>
<path d="M1337 1190 c-3 -11 -3 -20 -1 -20 2 0 8 9 14 20 6 11 7 20 2 20 -6 0
-12 -9 -15 -20z"/>
<path d="M1206 1164 c-9 -24 -7 -56 3 -49 6 3 14 -3 20 -12 9 -16 10 -16 11 4
0 12 -6 23 -12 26 -7 2 -9 8 -5 13 5 5 21 -7 38 -25 l29 -34 -7 34 c-3 19 -12
40 -19 46 -18 18 -51 16 -58 -3z"/>
<path d="M667 1043 c-4 -3 -7 -11 -7 -17 0 -6 5 -5 12 2 6 6 9 14 7 17 -3 3
-9 2 -12 -2z"/>
<path d="M2190 1030 c-14 -4 -21 -8 -16 -9 6 -1 2 -7 -7 -13 -15 -11 -13 -13
18 -13 21 0 35 5 35 13 0 6 10 12 23 13 21 0 21 1 2 9 -24 10 -23 10 -55 0z"/>
<path d="M609 965 c-22 -31 -36 -42 -43 -35 -12 12 -29 13 -22 1 3 -5 -1 -12
-10 -15 -8 -3 -13 -10 -9 -15 3 -5 1 -12 -5 -16 -5 -3 -10 -12 -10 -18 0 -7 5
-4 11 6 14 24 28 21 23 -5 -5 -23 -4 -23 6 0 5 13 27 45 47 70 51 65 56 72 50
72 -3 0 -20 -20 -38 -45z"/>
<path d="M580 990 c-9 -6 -10 -10 -3 -10 6 0 15 5 18 10 8 12 4 12 -15 0z"/>
<path d="M1151 984 c0 -11 3 -14 6 -6 3 7 2 16 -1 19 -3 4 -6 -2 -5 -13z"/>
<path d="M555 960 c-3 -5 -2 -10 4 -10 5 0 13 5 16 10 3 6 2 10 -4 10 -5 0
-13 -4 -16 -10z"/>
<path d="M2305 900 c10 -11 20 -20 23 -20 3 0 -3 9 -13 20 -10 11 -20 20 -23
20 -3 0 3 -9 13 -20z"/>
<path d="M1825 870 c-9 -14 126 -18 169 -5 39 12 36 12 -62 13 -56 0 -104 -3
-107 -8z"/>
<path d="M475 825 c-23 -19 -25 -23 -10 -19 12 3 26 14 33 25 16 25 13 24 -23
-6z"/>
<path d="M514 818 l-19 -23 23 19 c21 18 27 26 19 26 -2 0 -12 -10 -23 -22z"/>
<path d="M2384 808 c-4 -7 -4 -10 1 -6 4 4 15 2 24 -5 14 -11 14 -10 2 6 -16
20 -18 21 -27 5z"/>
<path d="M431 754 c0 -11 3 -14 6 -6 3 7 2 16 -1 19 -3 4 -6 -2 -5 -13z"/>
<path d="M2401 734 c0 -11 3 -14 6 -6 3 7 2 16 -1 19 -3 4 -6 -2 -5 -13z"/>
<path d="M2500 672 c0 -5 7 -9 15 -9 8 0 12 4 9 9 -3 4 -9 8 -15 8 -5 0 -9 -4
-9 -8z"/>
<path d="M2530 605 c0 -8 -6 -12 -14 -9 -10 4 -12 -2 -8 -22 5 -27 5 -28 13
-5 5 12 13 20 18 17 5 -3 7 3 4 14 -6 23 -13 26 -13 5z"/>
<path d="M2523 543 c-7 -15 -11 -28 -9 -31 6 -6 28 38 24 48 -2 5 -9 -3 -15
-17z"/>
<path d="M263 465 c0 -27 2 -38 4 -22 2 15 2 37 0 50 -2 12 -4 0 -4 -28z"/>
<path d="M2593 445 c0 -22 2 -30 4 -17 2 12 2 30 0 40 -3 9 -5 -1 -4 -23z"/>
<path d="M311 404 c0 -11 3 -14 6 -6 3 7 2 16 -1 19 -3 4 -6 -2 -5 -13z"/>
<path d="M320 374 c0 -26 55 -83 80 -84 8 0 4 6 -10 13 -13 7 -35 28 -47 46
-13 19 -23 30 -23 25z"/>
<path d="M443 358 c4 -14 0 -29 -10 -40 -10 -11 -12 -18 -5 -18 7 0 12 5 12
12 0 6 8 1 19 -10 10 -12 29 -21 42 -21 21 1 21 2 4 6 -33 8 -45 24 -45 59 0
19 -5 34 -11 34 -7 0 -9 -9 -6 -22z"/>
<path d="M886 365 c-3 -8 -1 -15 4 -15 6 0 10 7 10 15 0 8 -2 15 -4 15 -2 0
-6 -7 -10 -15z"/>
<path d="M1752 333 c-14 -45 -2 -63 38 -60 15 1 26 5 23 10 -2 4 -16 4 -30 1
-25 -7 -25 -6 -19 40 8 56 3 59 -12 9z"/>
<path d="M2100 354 c0 -8 5 -12 10 -9 6 3 10 10 10 16 0 5 -4 9 -10 9 -5 0
-10 -7 -10 -16z"/>
<path d="M571 344 c0 -11 3 -14 6 -6 3 7 2 16 -1 19 -3 4 -6 -2 -5 -13z"/>
<path d="M661 344 c0 -11 3 -14 6 -6 3 7 2 16 -1 19 -3 4 -6 -2 -5 -13z"/>
<path d="M857 340 c-3 -11 -1 -20 4 -20 5 0 9 9 9 20 0 11 -2 20 -4 20 -2 0
-6 -9 -9 -20z"/>
<path d="M951 344 c0 -11 3 -14 6 -6 3 7 2 16 -1 19 -3 4 -6 -2 -5 -13z"/>
<path d="M2160 344 c0 -8 5 -12 10 -9 6 3 10 10 10 16 0 5 -4 9 -10 9 -5 0
-10 -7 -10 -16z"/>
<path d="M992 335 c0 -11 3 -28 7 -38 6 -18 8 -18 21 -2 11 13 11 16 0 13 -7
-2 -17 8 -21 22 -5 20 -7 21 -7 5z"/>
<path d="M1206 337 c3 -10 9 -15 12 -12 3 3 0 11 -7 18 -10 9 -11 8 -5 -6z"/>
<path d="M1938 323 c-5 -17 -19 -22 -70 -26 -10 -1 -14 -4 -10 -8 4 -3 24 -4
44 -2 26 4 39 11 44 25 3 11 4 22 1 24 -2 3 -7 -3 -9 -13z"/>
<path d="M747 324 c-10 -11 17 -31 35 -26 18 4 18 5 1 18 -20 15 -27 17 -36 8z"/>
<path d="M567 306 c-7 -18 24 -27 61 -17 26 7 26 8 4 13 -12 3 -25 1 -29 -4
-4 -7 -11 -5 -18 6 -11 14 -14 14 -18 2z"/>
<path d="M1235 310 c-3 -5 -1 -10 4 -10 6 0 11 5 11 10 0 6 -2 10 -4 10 -3 0
-8 -4 -11 -10z"/>
<path d="M2051 313 c-1 -6 -8 -18 -16 -26 -12 -13 -10 -14 18 -11 18 1 33 4
35 5 1 1 5 2 10 3 4 1 16 7 27 13 15 9 16 12 5 13 -9 0 -26 -7 -38 -16 -21
-14 -23 -14 -31 8 -6 13 -10 18 -10 11z"/>
<path d="M870 295 c9 -10 16 -12 25 -5 8 6 15 6 23 -2 8 -8 12 -9 12 -1 0 17
-32 25 -42 11 -6 -10 -8 -10 -8 0 0 6 -5 12 -11 12 -8 0 -8 -5 1 -15z"/>
<path d="M700 290 c-11 -8 -7 -9 15 -4 37 8 45 14 19 14 -10 0 -26 -5 -34 -10z"/>
<path d="M810 296 c0 -2 11 -6 25 -8 13 -3 22 -1 19 3 -5 9 -44 13 -44 5z"/>
<path d="M1343 294 c4 -4 27 -10 52 -14 25 -4 42 -4 38 0 -10 10 -99 23 -90
14z"/>
<path d="M1644 289 c-3 -6 -17 -9 -31 -6 -15 3 -22 0 -20 -7 2 -6 13 -10 23
-8 10 2 28 3 39 3 16 0 17 2 5 9 -11 7 -7 9 15 7 17 -2 36 -6 42 -10 13 -8 26
6 16 17 -11 10 -81 7 -89 -5z"/>
<path d="M1208 279 c-21 -13 8 -17 61 -8 29 4 55 10 57 12 7 6 -107 2 -118 -4z"/>
<path d="M2457 283 c-5 -7 -23 -14 -40 -15 -26 -1 -24 -2 13 -7 46 -7 75 3 63
22 -4 6 -9 3 -13 -9 -7 -19 -7 -19 -11 1 -3 14 -7 16 -12 8z"/>
</g>
</svg>
